<svg width="112" height="49" viewBox="0 0 112 49" fill="none" xmlns="http://www.w3.org/2000/svg">
<g id="Group 6">
<path id="Vector" d="M108.836 31.1826C108.836 31.6526 108.755 32.1351 108.595 32.6298C108.442 33.1246 108.209 33.5947 107.896 34.04C107.59 34.477 107.209 34.8729 106.751 35.2274C106.301 35.5738 105.778 35.8377 105.184 36.0191C105.264 36.2335 105.368 36.4397 105.497 36.6376C105.634 36.8272 105.794 36.9922 105.979 37.1324C106.164 37.2725 106.377 37.3839 106.618 37.4663C106.867 37.5488 107.152 37.59 107.474 37.59C107.956 37.59 108.37 37.4993 108.715 37.3179C109.061 37.1282 109.35 36.8808 109.583 36.5757C109.824 36.2706 110.017 35.9284 110.161 35.5491C110.306 35.1697 110.415 34.7863 110.487 34.3987C110.543 34.1183 110.656 33.9328 110.824 33.8421C111.001 33.7431 111.178 33.7184 111.355 33.7678C111.54 33.8173 111.696 33.9245 111.825 34.0894C111.961 34.2461 112.018 34.4358 111.994 34.6584C111.961 34.9141 111.905 35.2068 111.825 35.5367C111.752 35.8665 111.64 36.2005 111.487 36.5386C111.335 36.8767 111.138 37.2107 110.897 37.5406C110.664 37.8622 110.374 38.1508 110.029 38.4064C109.683 38.6621 109.278 38.8682 108.812 39.0249C108.346 39.1816 107.811 39.2599 107.209 39.2599C106.646 39.2599 106.1 39.1445 105.569 38.9136C105.047 38.6909 104.581 38.3693 104.171 37.9487C103.769 37.5199 103.444 36.9963 103.195 36.3778C102.954 35.7511 102.833 35.0419 102.833 34.2503C102.833 33.4504 102.942 32.7082 103.159 32.0237C103.376 31.331 103.661 30.7332 104.015 30.2301C104.368 29.7271 104.77 29.3354 105.22 29.055C105.67 28.7664 106.132 28.6221 106.606 28.6221C106.951 28.6221 107.261 28.6839 107.534 28.8076C107.815 28.9313 108.052 29.1086 108.245 29.3395C108.438 29.5622 108.583 29.8302 108.679 30.1436C108.783 30.4569 108.836 30.8033 108.836 31.1826ZM104.858 34.176C104.858 34.2503 104.862 34.3245 104.87 34.3987C104.878 34.4729 104.882 34.5512 104.882 34.6337C105.188 34.4853 105.465 34.2956 105.714 34.0647C105.963 33.8338 106.176 33.5699 106.353 33.2731C106.53 32.9762 106.666 32.6546 106.763 32.3082C106.859 31.9536 106.907 31.5867 106.907 31.2073C106.907 30.927 106.859 30.7084 106.763 30.5518C106.674 30.3951 106.55 30.3167 106.389 30.3167C106.188 30.3167 106.007 30.3868 105.847 30.527C105.694 30.6672 105.557 30.8527 105.437 31.0836C105.324 31.3063 105.228 31.5619 105.148 31.8506C105.075 32.1309 105.015 32.4154 104.967 32.7041C104.919 32.9927 104.886 33.2689 104.87 33.5328C104.854 33.7885 104.85 34.0029 104.858 34.176Z" fill="#4C4C4C"/>
<path id="Vector_2" d="M98.4013 30.6384V31.195C98.9637 31.8959 99.4699 32.6175 99.9199 33.3597C100.378 34.0936 100.764 34.8687 101.077 35.6851C101.398 36.5015 101.643 37.3633 101.812 38.2704C101.989 39.1775 102.077 40.1547 102.077 41.202C102.077 42.2575 101.997 43.2306 101.836 44.1212C101.684 45.02 101.463 45.7911 101.173 46.4343C100.892 47.0857 100.547 47.5929 100.137 47.9557C99.7351 48.3186 99.2892 48.5 98.799 48.5C98.3651 48.5 98.0035 48.3887 97.7143 48.166C97.425 47.9516 97.192 47.663 97.0152 47.3002C96.8465 46.9456 96.7219 46.5415 96.6416 46.0879C96.5692 45.6344 96.5331 45.1726 96.5331 44.7025V31.0713C96.509 31.0465 96.4809 31.0177 96.4487 30.9847C96.4246 30.9517 96.4005 30.9187 96.3764 30.8857C96.1835 30.6878 96.0068 30.5064 95.8461 30.3415C95.6934 30.1683 95.6171 29.9786 95.6171 29.7725C95.6171 29.6488 95.6613 29.5251 95.7496 29.4014C95.838 29.2695 95.9827 29.1911 96.1835 29.1664C96.2237 29.1664 96.2719 29.1623 96.3282 29.154C96.3844 29.1458 96.4527 29.1416 96.5331 29.1416V21.9426C96.5331 21.7611 96.517 21.6168 96.4849 21.5096C96.4608 21.4024 96.4326 21.32 96.4005 21.2622C96.3764 21.1963 96.3483 21.1468 96.3161 21.1138C96.292 21.0726 96.28 21.0313 96.28 20.9901C96.28 20.9406 96.3041 20.8994 96.3523 20.8664C96.4005 20.8334 96.4648 20.8046 96.5451 20.7798C96.6255 20.7551 96.7099 20.7386 96.7982 20.7303C96.8947 20.7138 96.9871 20.7056 97.0755 20.7056C97.4853 20.7056 97.8067 20.8169 98.0397 21.0396C98.2807 21.254 98.4013 21.5137 98.4013 21.8189V28.9932C98.6905 28.9685 98.9798 28.9478 99.2691 28.9314C99.5583 28.9066 99.8396 28.886 100.113 28.8695C100.386 28.8448 100.635 28.8283 100.86 28.82C101.093 28.8118 101.294 28.8077 101.463 28.8077C101.736 28.8077 101.973 28.8613 102.174 28.9685C102.375 29.0757 102.475 29.2612 102.475 29.5251C102.475 29.6158 102.463 29.7477 102.439 29.9209C102.423 30.0941 102.395 30.2714 102.355 30.4528C102.322 30.6342 102.274 30.7909 102.21 30.9229C102.154 31.0548 102.085 31.1208 102.005 31.1208C101.965 31.1208 101.933 31.1084 101.909 31.0837C101.893 31.0507 101.86 31.0177 101.812 30.9847C101.772 30.9517 101.708 30.9187 101.619 30.8857C101.539 30.8528 101.414 30.828 101.246 30.8115L98.4013 30.6384ZM100.209 41.202C100.209 40.6247 100.169 40.0268 100.089 39.4084C100.016 38.7981 99.9039 38.1797 99.7512 37.5529C99.5985 36.918 99.4097 36.2912 99.1847 35.6728C98.9597 35.046 98.6986 34.4399 98.4013 33.8544V44.7025C98.4013 44.9005 98.4093 45.1149 98.4254 45.3458C98.4414 45.5767 98.4696 45.7869 98.5097 45.9766C98.558 46.1663 98.6182 46.323 98.6905 46.4467C98.7709 46.5786 98.8713 46.6446 98.9919 46.6446C99.1686 46.6446 99.3334 46.5126 99.486 46.2487C99.6387 45.9849 99.7673 45.6096 99.8717 45.1231C99.9762 44.6448 100.057 44.0717 100.113 43.4037C100.177 42.744 100.209 42.0101 100.209 41.202Z" fill="#4C4C4C"/>
<path id="Vector_3" d="M94.7618 37.59C95.0108 37.59 95.2238 37.4993 95.4006 37.3179C95.5854 37.1365 95.7421 36.9097 95.8706 36.6376C96.0072 36.3654 96.1157 36.0727 96.196 35.7593C96.2844 35.4377 96.3567 35.1367 96.413 34.8564C96.4692 34.5925 96.5496 34.4028 96.654 34.2874C96.7665 34.1637 96.8871 34.1018 97.0156 34.1018C97.1121 34.1018 97.2085 34.1348 97.3049 34.2008C97.4094 34.2585 97.5018 34.3368 97.5821 34.4358C97.6705 34.5347 97.7388 34.6461 97.787 34.7698C97.8433 34.8935 97.8714 35.0172 97.8714 35.1409C97.8714 35.1574 97.8714 35.178 97.8714 35.2027C97.8714 35.2274 97.8633 35.2646 97.8473 35.314C97.7428 35.7346 97.5982 36.1758 97.4134 36.6376C97.2366 37.0994 97.0076 37.5241 96.7264 37.9116C96.4451 38.2992 96.1036 38.6208 95.7019 38.8765C95.3081 39.1321 94.8461 39.2599 94.3158 39.2599C93.8819 39.2599 93.5042 39.1651 93.1828 38.9754C92.8614 38.7858 92.6083 38.5342 92.4235 38.2209C92.1744 38.5095 91.8731 38.7528 91.5195 38.9507C91.174 39.1568 90.7683 39.2599 90.3022 39.2599C89.8201 39.2599 89.3942 39.161 89.0246 38.9631C88.663 38.7651 88.3577 38.4971 88.1086 38.159C87.8595 37.8127 87.6707 37.4086 87.5421 36.9468C87.4216 36.4768 87.3613 35.9737 87.3613 35.4377C87.3613 34.3822 87.526 33.4339 87.8555 32.5927C88.1849 31.7516 88.6229 31.0383 89.1693 30.4528C89.7156 29.8591 90.3384 29.4055 91.0374 29.0921C91.7445 28.7788 92.4757 28.6221 93.231 28.6221C93.5685 28.6221 93.8417 28.7169 94.0506 28.9066C94.2596 29.0963 94.364 29.356 94.364 29.6859C94.364 29.9003 94.3399 30.0528 94.2917 30.1436C94.2515 30.226 94.1712 30.2673 94.0506 30.2673C93.9381 30.2673 93.8216 30.259 93.7011 30.2425C93.5806 30.226 93.456 30.2178 93.3275 30.2178C92.8614 30.2178 92.3874 30.325 91.9052 30.5394C91.4231 30.7455 90.9852 31.0672 90.5915 31.5042C90.2058 31.933 89.8884 32.4814 89.6393 33.1494C89.3902 33.8091 89.2657 34.5966 89.2657 35.5119C89.2657 36.1799 89.3902 36.6953 89.6393 37.0581C89.8884 37.4127 90.2299 37.59 90.6638 37.59C91.0013 37.59 91.2825 37.4622 91.5075 37.2066C91.7325 36.9427 91.9133 36.6335 92.0499 36.2789V32.3701C92.0499 32.2464 92.0418 32.1433 92.0258 32.0608C92.0177 31.9784 92.0057 31.9083 91.9896 31.8506C91.9816 31.7928 91.9735 31.7434 91.9655 31.7021C91.9575 31.6526 91.9535 31.6073 91.9535 31.5661C91.9535 31.4341 92.0137 31.331 92.1342 31.2568C92.2628 31.1744 92.4155 31.1331 92.5922 31.1331C93.002 31.1331 93.3275 31.2444 93.5685 31.4671C93.8096 31.6815 93.9301 31.9413 93.9301 32.2464V36.4273C93.9301 36.5675 93.9462 36.7077 93.9783 36.8479C94.0105 36.9798 94.0587 37.1035 94.123 37.2189C94.1872 37.3261 94.2716 37.4169 94.3761 37.4911C94.4886 37.557 94.6171 37.59 94.7618 37.59Z" fill="#4C4C4C"/>
<path id="Vector_4" d="M80.441 31.393C80.7464 31.393 81.0678 31.3394 81.4053 31.2322C81.7427 31.1168 82.0762 30.9642 82.4056 30.7746C82.7431 30.5766 83.0605 30.3457 83.3578 30.0819C83.6632 29.8097 83.9283 29.517 84.1533 29.2036C84.3863 28.882 84.5711 28.548 84.7077 28.2017C84.8443 27.8471 84.9126 27.4925 84.9126 27.1379C84.9126 26.9895 84.8845 26.8328 84.8283 26.6679C84.7801 26.5029 84.6957 26.3504 84.5752 26.2102C84.4627 26.07 84.31 25.9546 84.1171 25.8638C83.9243 25.7649 83.6873 25.7154 83.406 25.7154C82.8596 25.7154 82.3373 25.8474 81.8392 26.1112C81.349 26.3751 80.891 26.7338 80.4651 27.1874C80.0393 27.6409 79.6496 28.1728 79.296 28.7831C78.9505 29.385 78.6532 30.0283 78.4041 30.7127C78.1631 31.3972 77.9742 32.1022 77.8376 32.8279C77.7091 33.5536 77.6448 34.2587 77.6448 34.9431C77.6448 35.7265 77.7131 36.4893 77.8497 37.2315C77.9863 37.9654 78.2032 38.6169 78.5005 39.1859C78.8059 39.7549 79.2036 40.2125 79.6938 40.5589C80.1839 40.897 80.7866 41.066 81.5017 41.066C82.024 41.066 82.494 40.9877 82.9119 40.831C83.3297 40.6743 83.6873 40.5053 83.9846 40.3239C84.2819 40.1342 84.5109 39.961 84.6716 39.8043C84.8323 39.6394 84.9207 39.5528 84.9367 39.5446C85.0412 39.3632 85.1577 39.256 85.2863 39.223C85.4229 39.19 85.5514 39.2065 85.672 39.2724C85.8005 39.3384 85.917 39.4415 86.0215 39.5817C86.1259 39.7136 86.2063 39.8579 86.2625 40.0146C86.3268 40.1713 86.355 40.328 86.3469 40.4847C86.3389 40.6413 86.2867 40.7692 86.1902 40.8681C86.1742 40.8846 86.1139 40.9465 86.0094 41.0537C85.905 41.1609 85.7563 41.2928 85.5635 41.4495C85.3706 41.6062 85.1336 41.7711 84.8524 41.9443C84.5711 42.1257 84.2537 42.2906 83.9002 42.4391C83.5466 42.5957 83.1529 42.7236 82.719 42.8225C82.2932 42.9215 81.8311 42.9709 81.3329 42.9709C80.4491 42.9709 79.6576 42.7813 78.9585 42.4019C78.2595 42.0226 77.6649 41.4866 77.1747 40.7939C76.6926 40.093 76.323 39.2477 76.0659 38.2581C75.8087 37.2686 75.6802 36.1636 75.6802 34.9431C75.6802 34.1185 75.7645 33.2732 75.9333 32.4073C76.102 31.5415 76.3471 30.7003 76.6685 29.884C76.998 29.0593 77.3957 28.2842 77.8617 27.5585C78.3278 26.8245 78.8581 26.1855 79.4527 25.6412C80.0473 25.0969 80.7022 24.6681 81.4173 24.3548C82.1324 24.0331 82.8998 23.8723 83.7194 23.8723C84.1613 23.8723 84.5752 23.9424 84.9608 24.0826C85.3465 24.2228 85.676 24.4331 85.9492 24.7135C86.2304 24.9939 86.4514 25.3443 86.6121 25.7649C86.7728 26.1772 86.8531 26.6596 86.8531 27.2121C86.8531 27.7316 86.7527 28.2388 86.5518 28.7336C86.359 29.2284 86.0978 29.6984 85.7684 30.1437C85.4389 30.5808 85.0532 30.9848 84.6113 31.3559C84.1774 31.727 83.7154 32.0486 83.2252 32.3208C82.7431 32.5846 82.253 32.7908 81.7548 32.9392C81.2566 33.0877 80.7785 33.1619 80.3205 33.1619C80.0152 33.1619 79.754 33.0671 79.5371 32.8774C79.3282 32.6795 79.2237 32.3702 79.2237 31.9497C79.2237 31.859 79.2277 31.7682 79.2358 31.6775C79.2518 31.5786 79.2719 31.492 79.296 31.4178C79.3201 31.3353 79.3482 31.2693 79.3804 31.2199C79.4206 31.1704 79.4607 31.1456 79.5009 31.1456C79.5411 31.1456 79.5773 31.158 79.6094 31.1828C79.6496 31.2075 79.6978 31.2364 79.754 31.2693C79.8183 31.3023 79.9027 31.3312 80.0071 31.3559C80.1116 31.3807 80.2562 31.393 80.441 31.393Z" fill="#4C4C4C"/>
<path id="Vector_5" d="M67.0141 40.8929C67.223 40.9176 67.3275 40.9918 67.3275 41.1155C67.3275 41.2062 67.2833 41.3093 67.1949 41.4247C67.1065 41.5402 66.994 41.6474 66.8574 41.7464C66.7208 41.8453 66.5681 41.9278 66.3994 41.9937C66.2307 42.068 66.07 42.1051 65.9173 42.1051C65.7968 42.1051 65.6843 42.0762 65.5798 42.0185C65.4754 41.969 65.383 41.8824 65.3026 41.7587C65.2062 41.5773 65.1098 41.4 65.0133 41.2268C64.9169 41.0454 64.8245 40.8681 64.7361 40.6949C64.3022 41.165 63.8362 41.5155 63.338 41.7464C62.8478 41.9855 62.3617 42.1051 61.8796 42.1051C61.2448 42.1051 60.6864 41.9814 60.2043 41.734C59.7222 41.4948 59.3204 41.165 58.999 40.7444C58.6776 40.3156 58.4325 39.8167 58.2638 39.2477C58.1031 38.6705 58.0227 38.052 58.0227 37.3923C58.0227 36.6089 58.1191 35.8502 58.312 35.1163C58.5048 34.3741 58.7338 33.6938 58.999 33.0753C59.2641 32.4486 59.5333 31.9002 59.8065 31.4301C60.0797 30.9601 60.3007 30.6014 60.4694 30.354C60.2203 29.5376 60.0154 28.8037 59.8547 28.1522C59.694 27.5007 59.5655 26.9441 59.469 26.4823C59.3807 26.0123 59.3164 25.6453 59.2762 25.3814C59.2441 25.1093 59.228 24.9526 59.228 24.9114C59.228 24.6228 59.3124 24.3877 59.4811 24.2063C59.6498 24.0167 59.8869 23.9218 60.1922 23.9218H64.8084C64.8567 23.9053 64.9049 23.893 64.9531 23.8847C65.0013 23.8765 65.0455 23.8723 65.0857 23.8723C65.2464 23.8723 65.3629 23.9342 65.4352 24.0579C65.5155 24.1733 65.5557 24.3135 65.5557 24.4785C65.5557 24.6269 65.5316 24.7836 65.4834 24.9485C65.4352 25.1052 65.3669 25.2536 65.2785 25.3938C65.1901 25.5257 65.0816 25.6371 64.9531 25.7278C64.8325 25.8102 64.6959 25.8515 64.5433 25.8515C64.4147 25.8515 64.2098 25.8515 63.9286 25.8515C63.6554 25.8432 63.3541 25.835 63.0246 25.8267C62.7032 25.8185 62.3778 25.8102 62.0483 25.802C61.7269 25.7937 61.4537 25.7814 61.2288 25.7649C61.277 26.2102 61.3854 26.7957 61.5542 27.5214C61.731 28.247 61.968 29.0799 62.2653 30.02C62.5706 30.9519 62.9362 31.9744 63.3621 33.0877C63.788 34.1927 64.2781 35.3513 64.8325 36.5635C65.0334 35.6152 65.1339 34.5184 65.1339 33.2732C65.1339 33.1825 65.1218 33.0877 65.0977 32.9887C65.0816 32.8898 65.0656 32.7908 65.0495 32.6918C65.0334 32.5929 65.0214 32.5022 65.0133 32.4197C65.0053 32.3372 65.0133 32.2672 65.0374 32.2094C65.0857 32.0857 65.158 31.9827 65.2544 31.9002C65.3589 31.8095 65.4794 31.7394 65.616 31.6899C65.7526 31.6322 65.9012 31.5951 66.0619 31.5786C66.2226 31.5538 66.3833 31.5415 66.544 31.5415C66.6887 31.5415 66.8253 31.5662 66.9538 31.6157C67.0904 31.6652 67.1587 31.7353 67.1587 31.826C67.1587 31.8919 67.1467 31.9414 67.1226 31.9744C67.0985 32.0074 67.0704 32.0651 67.0382 32.1476C67.0141 32.23 66.99 32.3579 66.9659 32.531C66.9418 32.696 66.9297 32.9434 66.9297 33.2732C66.9297 34.4524 66.8373 35.4997 66.6525 36.4151C66.4757 37.3304 66.2307 38.1386 65.9173 38.8395C66.0941 39.1859 66.2708 39.5281 66.4476 39.8662C66.6244 40.2043 66.8132 40.5465 67.0141 40.8929ZM61.976 40.2373C62.3617 40.2373 62.7153 40.1342 63.0367 39.928C63.3581 39.7136 63.6474 39.4085 63.9045 39.0127C63.3179 37.8335 62.8037 36.7119 62.3617 35.6482C61.9278 34.5844 61.5421 33.5783 61.2046 32.63C61.0439 32.9104 60.8832 33.2237 60.7225 33.5701C60.5699 33.9082 60.4293 34.2751 60.3007 34.671C60.1721 35.0668 60.0677 35.4915 59.9873 35.945C59.915 36.3903 59.8788 36.8645 59.8788 37.3675C59.8788 37.7386 59.927 38.0973 60.0235 38.4437C60.1199 38.7818 60.2565 39.0869 60.4333 39.359C60.6181 39.6229 60.839 39.8373 61.0962 40.0023C61.3613 40.1589 61.6546 40.2373 61.976 40.2373Z" fill="#252525"/>
<path id="Vector_6" d="M55.8517 31.4301C55.9241 31.1662 56.0084 30.9765 56.1048 30.8611C56.2013 30.7374 56.3138 30.6756 56.4423 30.6756C56.5387 30.6756 56.6392 30.7085 56.7436 30.7745C56.8481 30.8322 56.9405 30.9106 57.0209 31.0095C57.1092 31.1085 57.1775 31.2198 57.2258 31.3435C57.282 31.4672 57.3101 31.5909 57.3101 31.7146C57.3101 31.7311 57.3101 31.7641 57.3101 31.8136C57.3101 31.863 57.3021 31.9125 57.286 31.962C57.0771 32.6959 56.832 33.3474 56.5508 33.9164C56.2776 34.4771 55.9803 34.9802 55.6589 35.4255C55.3455 35.8708 55.0201 36.2666 54.6826 36.6129C54.3451 36.9675 54.0077 37.2933 53.6702 37.5901V41.969C53.6702 42.6369 53.5938 43.1977 53.4412 43.6512C53.2965 44.113 53.1037 44.4841 52.8626 44.7645C52.6216 45.0531 52.3484 45.2593 52.043 45.383C51.7377 45.5067 51.4284 45.5685 51.115 45.5685C50.7695 45.5685 50.4521 45.4902 50.1628 45.3335C49.8735 45.185 49.6204 44.9789 49.4035 44.715C49.1946 44.4511 49.0298 44.1419 48.9093 43.7873C48.7968 43.4327 48.7406 43.0534 48.7406 42.6493C48.7406 42.0061 48.8209 41.4371 48.9816 40.9423C49.1504 40.4475 49.3754 39.994 49.6566 39.5816C49.9378 39.1693 50.2632 38.7817 50.6329 38.4189C51.0025 38.0643 51.3922 37.7015 51.802 37.3304V34.1143C51.5047 34.6256 51.1592 35.042 50.7655 35.3636C50.3717 35.6935 49.9097 35.8584 49.3794 35.8584C48.9696 35.8584 48.6 35.7718 48.2705 35.5986C47.9491 35.4255 47.6759 35.1822 47.4509 34.8688C47.2259 34.5472 47.0532 34.1638 46.9327 33.7185C46.8202 33.2649 46.7639 32.7619 46.7639 32.2094C46.7639 31.5414 46.8081 30.8693 46.8965 30.1931C46.9929 29.5169 47.0974 28.9067 47.2099 28.3624C47.3384 27.7275 47.4871 27.1131 47.6558 26.5194C47.696 26.4122 47.7241 26.305 47.7402 26.1978C47.7643 26.0823 47.8125 25.9792 47.8848 25.8885C47.9571 25.7978 48.0696 25.7236 48.2223 25.6659C48.383 25.6082 48.6281 25.5793 48.9575 25.5793C49.2629 25.5793 49.4597 25.637 49.5481 25.7525C49.6365 25.8597 49.6686 25.9875 49.6445 26.1359C49.6285 26.2844 49.5803 26.4369 49.4999 26.5936C49.4276 26.7503 49.3794 26.8781 49.3553 26.9771C49.2428 27.4471 49.1423 27.8759 49.054 28.2635C48.9656 28.6511 48.8892 29.0428 48.8249 29.4386C48.7687 29.8262 48.7245 30.2344 48.6924 30.6632C48.6602 31.0837 48.6442 31.5579 48.6442 32.0857C48.6442 32.7784 48.7406 33.302 48.9334 33.6566C49.1343 34.0112 49.4155 34.1885 49.7771 34.1885C50.0262 34.1885 50.2552 34.0937 50.4641 33.904C50.6811 33.7143 50.8739 33.4628 51.0427 33.1495C51.2194 32.8279 51.3721 32.465 51.5007 32.0609C51.6292 31.6486 51.7297 31.2198 51.802 30.7745V26.6926C51.802 26.4534 51.7859 26.2802 51.7538 26.173C51.7216 26.0658 51.7056 25.9669 51.7056 25.8762C51.7056 25.7525 51.7658 25.6535 51.8864 25.5793C52.0149 25.4968 52.1676 25.4556 52.3444 25.4556C52.7542 25.4556 53.0756 25.5669 53.3086 25.7896C53.5497 26.004 53.6702 26.2637 53.6702 26.5689V35.4626C54.1202 34.9513 54.534 34.3699 54.9116 33.7185C55.2893 33.067 55.6026 32.3042 55.8517 31.4301ZM51.115 43.9728C51.3078 43.9728 51.4525 43.8904 51.5489 43.7254C51.6453 43.5605 51.7096 43.3667 51.7417 43.1441C51.7819 42.9297 51.802 42.7111 51.802 42.4885C51.802 42.2658 51.802 42.0927 51.802 41.969V39.26C51.4002 39.6723 51.0748 40.1383 50.8257 40.6578C50.5847 41.1773 50.4641 41.8164 50.4641 42.5751C50.4641 42.9709 50.5204 43.3007 50.6329 43.5646C50.7534 43.8368 50.9141 43.9728 51.115 43.9728Z" fill="#4C4C4C"/>
<path id="Vector_7" d="M44.8745 41.932C44.5853 41.932 44.288 41.8866 43.9826 41.7959C43.6853 41.7052 43.4121 41.5485 43.163 41.3259C42.922 41.1032 42.7211 40.8105 42.5604 40.4476C42.4077 40.0765 42.3314 39.6106 42.3314 39.0499C42.3314 38.2335 42.4359 37.3717 42.6448 36.4646C42.8617 35.5493 43.1711 34.5432 43.5728 33.4465H41.6926H41.4154C41.4073 33.6938 41.3913 34.0072 41.3672 34.3865C41.3511 34.7659 41.319 35.1699 41.2707 35.5988C41.2225 36.0276 41.1583 36.4605 41.0779 36.8976C41.0056 37.3346 40.9132 37.7387 40.8007 38.1098C40.7203 38.3737 40.5918 38.5262 40.415 38.5675C40.2463 38.6087 40.0775 38.5798 39.9088 38.4809C39.74 38.3737 39.6034 38.2211 39.499 38.0232C39.3945 37.8253 39.3704 37.6191 39.4267 37.4047C39.4909 37.1491 39.5472 36.8398 39.5954 36.477C39.6436 36.1059 39.6798 35.7183 39.7039 35.3143C39.736 34.9019 39.7601 34.4937 39.7762 34.0897C39.7923 33.6774 39.8043 33.3104 39.8124 32.9888C39.507 32.8156 39.2539 32.5971 39.053 32.3332C38.8521 32.0611 38.7517 31.7395 38.7517 31.3684C38.7517 31.1952 38.7838 31.0385 38.8481 30.8983C38.9204 30.7499 39.0129 30.6262 39.1253 30.5272C39.2378 30.42 39.3704 30.3417 39.5231 30.2922C39.6758 30.2345 39.8324 30.2056 39.9931 30.2056C40.1378 30.2056 40.2864 30.2262 40.4391 30.2675C40.5998 30.3087 40.7485 30.3829 40.8851 30.4901C41.0297 30.5973 41.1583 30.7375 41.2707 30.9107C41.3832 31.0839 41.4756 31.2983 41.548 31.5539C41.7488 31.5786 41.9176 31.5993 42.0542 31.6158C42.1988 31.624 42.3193 31.6323 42.4158 31.6405C42.5122 31.6487 42.5925 31.6529 42.6568 31.6529C42.7211 31.6529 42.7854 31.6529 42.8497 31.6529H44.1393C44.2116 31.6529 44.3161 31.6982 44.4527 31.7889C44.5973 31.8796 44.7379 31.9992 44.8745 32.1476C45.0111 32.2878 45.1236 32.4404 45.212 32.6053C45.3084 32.7702 45.3446 32.9269 45.3205 33.0754C45.3205 33.1248 45.2924 33.2444 45.2361 33.4341C45.1799 33.6237 45.1116 33.8629 45.0312 34.1515C44.9509 34.4401 44.8625 34.7741 44.7661 35.1535C44.6696 35.5245 44.5813 35.9162 44.5009 36.3286C44.4205 36.7409 44.3523 37.1697 44.296 37.615C44.2398 38.0521 44.2116 38.4809 44.2116 38.9014C44.2116 39.0746 44.2317 39.2437 44.2719 39.4086C44.3121 39.5735 44.3723 39.7219 44.4527 39.8539C44.533 39.9776 44.6335 40.0765 44.754 40.1508C44.8826 40.225 45.0312 40.2621 45.2 40.2621C45.4812 40.2621 45.7223 40.1714 45.9231 39.9899C46.124 39.8085 46.2928 39.5818 46.4294 39.3096C46.566 39.0375 46.6744 38.7447 46.7548 38.4314C46.8432 38.1098 46.9155 37.8088 46.9717 37.5284C47.0199 37.2645 47.1003 37.0749 47.2128 36.9594C47.3253 36.8357 47.4418 36.7739 47.5623 36.7739C47.6587 36.7739 47.7592 36.8068 47.8636 36.8728C47.9681 36.9305 48.0605 37.0089 48.1409 37.1078C48.2292 37.2068 48.2975 37.3181 48.3457 37.4418C48.402 37.5655 48.4301 37.6892 48.4301 37.8129C48.4301 37.8541 48.4261 37.8871 48.4181 37.9119C48.41 37.9366 48.406 37.9613 48.406 37.9861C48.2935 38.4066 48.1449 38.8478 47.9601 39.3096C47.7833 39.7714 47.5543 40.1961 47.273 40.5837C46.9918 40.9713 46.6543 41.2929 46.2606 41.5485C45.8669 41.8042 45.4049 41.932 44.8745 41.932Z" fill="#4C4C4C"/>
<path id="Vector_8" d="M37.8458 32.7661C37.8458 33.2362 37.7655 33.7186 37.6048 34.2134C37.4521 34.7081 37.2191 35.1782 36.9057 35.6235C36.6003 36.0606 36.2187 36.4564 35.7607 36.811C35.3107 37.1573 34.7884 37.4212 34.1938 37.6026C34.2742 37.817 34.3786 38.0232 34.5072 38.2211C34.6438 38.4108 34.8045 38.5757 34.9893 38.7159C35.1741 38.8561 35.387 38.9674 35.6281 39.0499C35.8772 39.1323 36.1624 39.1736 36.4838 39.1736C36.966 39.1736 37.3798 39.0828 37.7253 38.9014C38.0708 38.7118 38.3601 38.4644 38.5931 38.1593C38.8341 37.8541 39.027 37.5119 39.1716 37.1326C39.3163 36.7532 39.4247 36.3698 39.497 35.9822C39.5533 35.7018 39.6658 35.5163 39.8345 35.4256C40.0113 35.3266 40.1881 35.3019 40.3648 35.3514C40.5497 35.4008 40.7063 35.508 40.8349 35.673C40.9715 35.8297 41.0278 36.0193 41.0036 36.242C40.9715 36.4976 40.9153 36.7904 40.8349 37.1202C40.7626 37.4501 40.6501 37.784 40.4974 38.1221C40.3448 38.4602 40.1479 38.7942 39.9068 39.1241C39.6738 39.4457 39.3846 39.7343 39.039 39.9899C38.6935 40.2456 38.2877 40.4517 37.8217 40.6084C37.3557 40.7651 36.8213 40.8434 36.2187 40.8434C35.6562 40.8434 35.1098 40.728 34.5795 40.4971C34.0572 40.2744 33.5912 39.9528 33.1814 39.5323C32.7796 39.1035 32.4542 38.5798 32.2051 37.9613C31.964 37.3346 31.8435 36.6254 31.8435 35.8338C31.8435 35.0339 31.952 34.2917 32.1689 33.6073C32.3859 32.9146 32.6711 32.3167 33.0247 31.8137C33.3782 31.3106 33.78 30.9189 34.23 30.6386C34.6799 30.3499 35.142 30.2056 35.616 30.2056C35.9616 30.2056 36.2709 30.2675 36.5441 30.3912C36.8253 30.5149 37.0624 30.6922 37.2552 30.9231C37.4481 31.1457 37.5927 31.4137 37.6891 31.7271C37.7936 32.0404 37.8458 32.3868 37.8458 32.7661ZM33.8684 35.7596C33.8684 35.8338 33.8724 35.908 33.8804 35.9822C33.8885 36.0564 33.8925 36.1348 33.8925 36.2172C34.1978 36.0688 34.475 35.8791 34.7241 35.6482C34.9732 35.4173 35.1862 35.1535 35.3629 34.8566C35.5397 34.5597 35.6763 34.2381 35.7727 33.8918C35.8691 33.5372 35.9174 33.1702 35.9174 32.7909C35.9174 32.5105 35.8691 32.292 35.7727 32.1353C35.6843 31.9786 35.5598 31.9003 35.3991 31.9003C35.1982 31.9003 35.0174 31.9704 34.8567 32.1105C34.704 32.2507 34.5674 32.4363 34.4469 32.6672C34.3344 32.8898 34.238 33.1455 34.1576 33.4341C34.0853 33.7145 34.0251 33.999 33.9769 34.2876C33.9286 34.5762 33.8965 34.8525 33.8804 35.1163C33.8644 35.372 33.8603 35.5864 33.8684 35.7596Z" fill="#4C4C4C"/>
<path id="Vector_9" d="M23.5175 28.2758C23.5175 28.0944 23.5014 27.9501 23.4693 27.8429C23.4452 27.7357 23.4171 27.6532 23.3849 27.5955C23.3608 27.5295 23.3327 27.48 23.3006 27.447C23.2765 27.4058 23.2644 27.3646 23.2644 27.3233C23.2644 27.2739 23.2885 27.2326 23.3367 27.1997C23.3849 27.1667 23.4492 27.1378 23.5296 27.1131C23.6099 27.0883 23.6943 27.0718 23.7827 27.0636C23.8791 27.0471 23.9715 27.0388 24.0599 27.0388C24.4697 27.0388 24.7911 27.1502 25.0241 27.3728C25.2652 27.5872 25.3857 27.847 25.3857 28.1521V36.0563C25.5866 35.7759 25.7955 35.512 26.0124 35.2646C26.2374 35.009 26.4705 34.7863 26.7115 34.5967C26.9526 34.3987 27.2017 34.2421 27.4588 34.1266C27.7239 34.0112 27.9971 33.9534 28.2784 33.9534C28.6641 33.9534 28.9935 34.0318 29.2667 34.1885C29.5399 34.3369 29.7649 34.5389 29.9417 34.7946C30.1265 35.0502 30.2591 35.3429 30.3394 35.6728C30.4278 35.9944 30.472 36.3325 30.472 36.6871C30.472 37.1736 30.3957 37.6313 30.243 38.0601C30.0903 38.4807 29.8975 38.8641 29.6644 39.2105C29.4314 39.5568 29.1743 39.8661 28.8931 40.1382C28.6199 40.4103 28.3587 40.6371 28.1096 40.8185C28.1659 41.0907 28.2422 41.3546 28.3386 41.6102C28.4431 41.8576 28.5676 42.0802 28.7123 42.2781C28.8569 42.4761 29.0216 42.6327 29.2064 42.7482C29.3993 42.8636 29.6162 42.9214 29.8573 42.9214C30.1385 42.9214 30.3997 42.8348 30.6407 42.6616C30.8898 42.4802 31.1068 42.2575 31.2916 41.9936C31.4844 41.7215 31.6451 41.4288 31.7737 41.1154C31.9023 40.7938 31.9947 40.4928 32.0509 40.2124C32.0991 39.9568 32.1714 39.7712 32.2679 39.6558C32.3723 39.5404 32.4808 39.4785 32.5933 39.4703C32.7138 39.4538 32.8343 39.4826 32.9549 39.5568C33.0754 39.6311 33.1799 39.73 33.2682 39.8537C33.3566 39.9692 33.4209 40.1011 33.4611 40.2495C33.5093 40.398 33.5173 40.5382 33.4852 40.6701C33.3727 41.0082 33.212 41.404 33.0031 41.8576C32.7942 42.3111 32.529 42.7399 32.2076 43.144C31.8862 43.5481 31.5085 43.8903 31.0746 44.1707C30.6407 44.4511 30.1425 44.5913 29.5801 44.5913C29.098 44.5913 28.656 44.4634 28.2543 44.2078C27.8605 43.9522 27.519 43.6306 27.2298 43.243C26.9485 42.8554 26.7316 42.4307 26.5789 41.9689C26.4263 41.5071 26.3499 41.0659 26.3499 40.6454C26.3499 40.5134 26.4062 40.3815 26.5187 40.2495C26.6312 40.1094 26.7718 39.9609 26.9405 39.8042C27.1173 39.6393 27.3021 39.4579 27.4949 39.26C27.6958 39.0621 27.8806 38.8394 28.0494 38.592C28.2261 38.3446 28.3708 38.0684 28.4833 37.7633C28.5958 37.4499 28.652 37.0994 28.652 36.7118C28.652 36.3985 28.5757 36.1428 28.423 35.9449C28.2784 35.747 28.0895 35.6481 27.8565 35.6481C27.7119 35.6481 27.5351 35.7058 27.3262 35.8212C27.1253 35.9284 26.9124 36.1181 26.6874 36.3902C26.4624 36.6624 26.2374 37.0252 26.0124 37.4788C25.7875 37.9241 25.5785 38.4807 25.3857 39.1486V43.5027C25.3857 43.6264 25.3817 43.7542 25.3736 43.8862C25.3736 44.0099 25.3495 44.1212 25.3013 44.2202C25.2612 44.3274 25.1929 44.414 25.0964 44.4799C25.008 44.5541 24.8755 44.5913 24.6987 44.5913C24.5782 44.5913 24.4456 44.5748 24.3009 44.5418C24.1643 44.517 24.0358 44.4634 23.9153 44.381C23.8028 44.3068 23.7063 44.1954 23.626 44.047C23.5537 43.9068 23.5175 43.7171 23.5175 43.478V28.2758Z" fill="#4C4C4C"/>
<path id="Vector_10" d="M21.743 39.1736C21.992 39.1736 22.205 39.0828 22.3818 38.9014C22.5666 38.72 22.7233 38.4932 22.8518 38.2211C22.9884 37.949 23.0969 37.6562 23.1772 37.3429C23.2656 37.0213 23.3379 36.7203 23.3942 36.4399C23.4504 36.176 23.5308 35.9863 23.6352 35.8709C23.7477 35.7472 23.8683 35.6853 23.9968 35.6853C24.0933 35.6853 24.1897 35.7183 24.2861 35.7843C24.3906 35.842 24.483 35.9204 24.5633 36.0193C24.6517 36.1183 24.72 36.2296 24.7682 36.3533C24.8245 36.477 24.8526 36.6007 24.8526 36.7244C24.8526 36.7409 24.8526 36.7615 24.8526 36.7862C24.8526 36.811 24.8445 36.8481 24.8285 36.8976C24.724 37.3181 24.5794 37.7593 24.3946 38.2211C24.2178 38.6829 23.9888 39.1076 23.7076 39.4952C23.4263 39.8827 23.0848 40.2044 22.6831 40.46C22.2894 40.7156 21.8273 40.8434 21.297 40.8434C20.8631 40.8434 20.4854 40.7486 20.164 40.5589C19.8426 40.3693 19.5895 40.1178 19.4047 39.8044C19.1556 40.093 18.8543 40.3363 18.5008 40.5342C18.1552 40.7404 17.7495 40.8434 17.2834 40.8434C16.8013 40.8434 16.3754 40.7445 16.0058 40.5466C15.6442 40.3487 15.3389 40.0807 15.0898 39.7426C14.8407 39.3962 14.6519 38.9921 14.5233 38.5303C14.4028 38.0603 14.3425 37.5573 14.3425 37.0213C14.3425 35.9657 14.5073 35.0174 14.8367 34.1763C15.1661 33.3351 15.6041 32.6218 16.1505 32.0363C16.6968 31.4426 17.3196 30.989 18.0186 30.6757C18.7257 30.3623 19.4569 30.2056 20.2122 30.2056C20.5497 30.2056 20.8229 30.3005 21.0318 30.4901C21.2408 30.6798 21.3452 30.9396 21.3452 31.2694C21.3452 31.4838 21.3211 31.6364 21.2729 31.7271C21.2327 31.8095 21.1524 31.8508 21.0318 31.8508C20.9193 31.8508 20.8028 31.8425 20.6823 31.826C20.5618 31.8095 20.4372 31.8013 20.3087 31.8013C19.8426 31.8013 19.3686 31.9085 18.8864 32.1229C18.4043 32.3291 17.9664 32.6507 17.5727 33.0877C17.187 33.5165 16.8696 34.0649 16.6205 34.7329C16.3714 35.3926 16.2469 36.1801 16.2469 37.0955C16.2469 37.7634 16.3714 38.2788 16.6205 38.6417C16.8696 38.9963 17.2111 39.1736 17.645 39.1736C17.9825 39.1736 18.2637 39.0457 18.4887 38.7901C18.7137 38.5262 18.8945 38.217 19.0311 37.8624V33.9536C19.0311 33.8299 19.023 33.7268 19.007 33.6444C18.9989 33.5619 18.9869 33.4918 18.9708 33.4341C18.9628 33.3764 18.9547 33.3269 18.9467 33.2856C18.9387 33.2362 18.9347 33.1908 18.9347 33.1496C18.9347 33.0176 18.9949 32.9146 19.1154 32.8403C19.244 32.7579 19.3967 32.7166 19.5735 32.7166C19.9832 32.7166 20.3087 32.828 20.5497 33.0506C20.7908 33.265 20.9113 33.5248 20.9113 33.8299V38.0108C20.9113 38.151 20.9274 38.2912 20.9595 38.4314C20.9917 38.5633 21.0399 38.687 21.1042 38.8025C21.1684 38.9097 21.2528 39.0004 21.3573 39.0746C21.4698 39.1406 21.5983 39.1736 21.743 39.1736Z" fill="#4C4C4C"/>
<path id="Vector_11" d="M4.49643 30.5024C4.49643 30.2632 4.47634 30.0901 4.43617 29.9829C4.40403 29.8757 4.38796 29.7767 4.38796 29.686C4.38796 29.5623 4.45224 29.4592 4.5808 29.3767C4.70937 29.2943 4.86203 29.2531 5.03881 29.2531C5.4486 29.2531 5.77805 29.3644 6.02714 29.587C6.28427 29.8014 6.41283 30.0653 6.41283 30.3787V39.7672C6.41283 40.3774 6.46104 40.8969 6.55746 41.3257C6.65389 41.7546 6.79852 42.105 6.99136 42.3772C7.18421 42.6493 7.42125 42.8513 7.70248 42.9833C7.98371 43.107 8.30512 43.1688 8.66671 43.1688C9.01222 43.1688 9.32961 43.1028 9.61888 42.9709C9.91618 42.839 10.1733 42.6575 10.3903 42.4266C10.6072 42.1957 10.7759 41.9236 10.8965 41.6102C11.017 41.2969 11.0773 40.9547 11.0773 40.5836C11.0773 40.0146 10.9808 39.5404 10.788 39.1611C10.5952 38.7817 10.342 38.4766 10.0287 38.2457C9.72334 38.0148 9.3738 37.854 8.98008 37.7633C8.59439 37.6644 8.2087 37.6149 7.82301 37.6149C7.75069 37.6149 7.67838 37.5695 7.60606 37.4788C7.53374 37.3799 7.47348 37.2603 7.42527 37.1201C7.37705 36.9799 7.3409 36.8315 7.31679 36.6748C7.29269 36.5099 7.28867 36.3573 7.30474 36.2171C7.32081 36.0769 7.35697 35.9615 7.41321 35.8708C7.4775 35.7718 7.57392 35.7223 7.70248 35.7223C7.89533 35.7223 8.12835 35.6976 8.40154 35.6481C8.67474 35.5986 8.95999 35.512 9.25729 35.3884C9.5546 35.2564 9.84788 35.0832 10.1371 34.8688C10.4264 34.6544 10.6876 34.3823 10.9206 34.0524C11.1536 33.7143 11.3424 33.3185 11.4871 32.865C11.6317 32.4032 11.704 31.8672 11.704 31.2569C11.704 30.7786 11.6237 30.3086 11.463 29.8468C11.3103 29.3767 11.0612 28.9603 10.7157 28.5975C10.3702 28.2264 9.92823 27.9295 9.38987 27.7069C8.85152 27.476 8.20468 27.3605 7.44937 27.3605C6.46104 27.3605 5.61333 27.5172 4.90623 27.8306C4.19913 28.1439 3.62059 28.5645 3.17062 29.0922C2.72869 29.62 2.40326 30.2344 2.19434 30.9353C1.98543 31.628 1.88097 32.3619 1.88097 33.1371C1.88097 33.6978 1.92517 34.172 2.01355 34.5596C2.10997 34.9389 2.21443 35.2523 2.32693 35.4997C2.43942 35.7388 2.54388 35.9161 2.6403 36.0316C2.73672 36.147 2.79297 36.213 2.80904 36.2295C2.94564 36.1883 3.04206 36.2047 3.09831 36.279C3.15455 36.3532 3.18268 36.4521 3.18268 36.5758C3.18268 36.6913 3.1425 36.8645 3.06215 37.0954C2.98983 37.3263 2.88939 37.5448 2.76083 37.7509C2.63226 37.9489 2.48361 38.1014 2.31487 38.2086C2.14613 38.3076 1.97338 38.287 1.7966 38.1468C1.70018 38.0561 1.55153 37.8911 1.35065 37.652C1.14977 37.4128 0.948887 37.0954 0.748007 36.6995C0.555162 36.2955 0.382405 35.813 0.229736 35.2523C0.0770669 34.6833 0.000732422 34.0277 0.000732422 33.2855C0.000732422 32.0981 0.181525 31.026 0.543109 30.0694C0.904693 29.1046 1.41091 28.28 2.06176 27.5955C2.72065 26.9111 3.50408 26.3833 4.41206 26.0122C5.32004 25.6411 6.32444 25.4556 7.42527 25.4556C8.35735 25.4556 9.20105 25.5875 9.95636 25.8514C10.7197 26.1071 11.3706 26.4823 11.9089 26.9771C12.4473 27.4718 12.8611 28.0779 13.1504 28.7954C13.4477 29.5046 13.5963 30.3086 13.5963 31.2074C13.5963 31.9001 13.516 32.5269 13.3553 33.0876C13.1945 33.6484 12.9696 34.1514 12.6803 34.5967C12.3991 35.042 12.0616 35.4378 11.6679 35.7842C11.2822 36.1223 10.8643 36.415 10.4144 36.6624C10.7759 36.7696 11.1134 36.9304 11.4268 37.1448C11.7402 37.351 12.0134 37.6149 12.2464 37.9365C12.4794 38.2581 12.6642 38.6374 12.8008 39.0745C12.9374 39.5033 13.0057 39.9898 13.0057 40.5341C13.0057 41.1691 12.8932 41.7546 12.6682 42.2906C12.4513 42.8266 12.15 43.2884 11.7643 43.676C11.3786 44.0635 10.9206 44.3645 10.3903 44.5789C9.86797 44.8016 9.30149 44.9129 8.69081 44.9129C7.87926 44.9129 7.2043 44.7851 6.66594 44.5295C6.12758 44.2821 5.6977 43.9316 5.37629 43.478C5.05488 43.0162 4.82588 42.4679 4.68928 41.8329C4.56071 41.1897 4.49643 40.4764 4.49643 39.693V30.5024Z" fill="#4C4C4C"/>
<g id="SuaZ">
<path id="Vector_12" d="M67.5342 27.8027C67.5342 27.1069 67.6653 26.4854 67.9274 25.938C68.1986 25.3999 68.5511 24.9222 68.985 24.5047C69.428 24.0872 69.9342 23.7254 70.5037 23.4193C71.0732 23.1224 71.6653 22.8719 72.28 22.6678C72.0269 21.8236 71.6291 21.1742 71.0867 20.7196C70.5444 20.265 69.8935 20.0238 69.1342 19.996C68.9805 19.9867 68.8449 19.9403 68.7274 19.8568C68.6099 19.764 68.5105 19.6481 68.4291 19.5089C68.3568 19.3698 68.298 19.2213 68.2528 19.0636C68.2167 18.8966 68.1986 18.7389 68.1986 18.5905C68.1986 18.3957 68.2348 18.2287 68.3071 18.0895C68.3794 17.9504 68.5014 17.8808 68.6732 17.8808C68.7003 17.8808 68.7319 17.8808 68.7681 17.8808C68.8042 17.8808 68.8449 17.8901 68.8901 17.9086C68.9172 17.9179 69.0528 17.8669 69.2969 17.7555C69.55 17.6442 69.8483 17.454 70.1918 17.185C70.5444 16.916 70.9195 16.5495 71.3173 16.0857C71.715 15.6218 72.0811 15.042 72.4156 14.3462C72.7591 13.6504 73.0438 12.8201 73.2698 11.8553C73.4958 10.8812 73.6088 9.75398 73.6088 8.47373C73.6088 7.66662 73.541 6.97083 73.4054 6.38637C73.2698 5.79263 73.0935 5.29166 72.8766 4.88347C72.6596 4.47527 72.4111 4.14593 72.1308 3.89545C71.8596 3.64497 71.5884 3.45478 71.3173 3.3249C71.0461 3.18575 70.7839 3.09297 70.5308 3.04659C70.2867 3.0002 70.0834 2.97701 69.9206 2.97701C69.4415 2.97701 68.9715 3.09761 68.5105 3.33882C68.0585 3.57075 67.6562 3.914 67.3037 4.36858C66.9511 4.82317 66.6664 5.38443 66.4494 6.05239C66.2415 6.72035 66.1376 7.49035 66.1376 8.36241C66.1376 9.27157 66.2415 10.0462 66.4494 10.6863C66.6573 11.3172 66.9059 11.8321 67.1952 12.231C67.4845 12.6299 67.7873 12.9221 68.1037 13.1077C68.4201 13.2932 68.6822 13.386 68.8901 13.386C68.9896 13.386 69.0754 13.3721 69.1478 13.3442C69.2201 13.3164 69.2833 13.3025 69.3376 13.3025C69.3828 13.3025 69.4144 13.3303 69.4325 13.386C69.4596 13.4324 69.4732 13.5344 69.4732 13.6921C69.4732 14.1931 69.3511 14.6106 69.1071 14.9446C68.863 15.2693 68.524 15.4316 68.0901 15.4316C67.8732 15.4316 67.6201 15.3667 67.3308 15.2368C67.0415 15.1069 66.7432 14.9121 66.4359 14.6523C66.1285 14.3926 65.8212 14.0725 65.5138 13.6921C65.2155 13.3025 64.9443 12.8526 64.7003 12.3423C64.4652 11.8228 64.2754 11.243 64.1308 10.6028C63.9861 9.96272 63.9138 9.26229 63.9138 8.50156C63.9138 7.18421 64.0946 6.03848 64.4562 5.06437C64.8268 4.09027 65.3014 3.28316 65.8799 2.64303C66.4675 2.00291 67.1184 1.52977 67.8325 1.22362C68.5557 0.9082 69.2698 0.750488 69.9749 0.750488C70.8246 0.750488 71.6065 0.936032 72.3207 1.30712C73.0438 1.66893 73.663 2.19309 74.1783 2.8796C74.7026 3.55683 75.1094 4.3825 75.3986 5.3566C75.6879 6.32143 75.8325 7.4115 75.8325 8.62681C75.8325 10.0277 75.697 11.2662 75.4258 12.3423C75.1546 13.4185 74.8156 14.3601 74.4088 15.1672C74.002 15.9743 73.5546 16.6608 73.0664 17.2267C72.5873 17.7834 72.1308 18.2472 71.6969 18.6183C71.9591 18.7389 72.2212 18.9013 72.4834 19.1054C72.7455 19.3002 72.9896 19.5414 73.2156 19.829C73.4506 20.1166 73.663 20.4506 73.8529 20.8309C74.0517 21.2206 74.219 21.6612 74.3546 22.1529C74.6981 22.0787 75.0235 22.0277 75.3308 21.9998C75.6472 21.972 75.9455 21.9488 76.2258 21.9303C76.5512 21.9117 76.7591 22.0138 76.8495 22.2364C76.9489 22.4683 76.9625 22.7281 76.8902 23.0157C76.8269 23.3033 76.7003 23.5677 76.5105 23.8089C76.3207 24.0501 76.1037 24.1753 75.8597 24.1846C75.4529 24.1846 75.0551 24.2125 74.6664 24.2681C74.6845 24.3702 74.6936 24.4769 74.6936 24.5882C74.6936 24.6995 74.6936 24.8108 74.6936 24.9222C74.6936 25.6458 74.6303 26.374 74.5037 27.1069C74.3772 27.8491 74.1557 28.5217 73.8393 29.1247C73.532 29.7277 73.1161 30.2194 72.5918 30.5998C72.0766 30.9801 71.4257 31.1703 70.6393 31.1703C70.1692 31.1703 69.7398 31.0822 69.3511 30.9059C68.9715 30.7389 68.6461 30.5024 68.3749 30.1962C68.1037 29.8994 67.8958 29.5422 67.7511 29.1247C67.6065 28.7165 67.5342 28.2759 67.5342 27.8027ZM72.5783 24.6717C71.6472 24.9593 70.9331 25.3628 70.4359 25.8823C69.9387 26.4019 69.6901 27.0234 69.6901 27.7471C69.6901 28.1738 69.785 28.4846 69.9749 28.6794C70.1737 28.8742 70.4133 28.9716 70.6935 28.9716C71.019 28.9716 71.2992 28.8464 71.5342 28.5959C71.7692 28.3454 71.9636 28.0254 72.1173 27.6357C72.28 27.2461 72.3975 26.8101 72.4698 26.3276C72.5421 25.8452 72.5783 25.3675 72.5783 24.8943V24.6717Z" fill="#FC8EAC"/>
<path id="Vector_13" d="M62.1265 19.6202C62.4067 19.6202 62.6463 19.5181 62.8452 19.314C63.0531 19.1099 63.2293 18.8548 63.374 18.5487C63.5276 18.2425 63.6497 17.9132 63.7401 17.5606C63.8395 17.1988 63.9209 16.8602 63.9841 16.5448C64.0474 16.2479 64.1378 16.0345 64.2553 15.9047C64.3819 15.7655 64.5175 15.6959 64.6621 15.6959C64.7706 15.6959 64.8791 15.733 64.9875 15.8073C65.1051 15.8722 65.209 15.9603 65.2994 16.0717C65.3988 16.183 65.4757 16.3082 65.5299 16.4474C65.5932 16.5865 65.6248 16.7257 65.6248 16.8649C65.6248 16.8834 65.6248 16.9066 65.6248 16.9344C65.6248 16.9623 65.6158 17.004 65.5977 17.0597C65.4802 17.5328 65.3175 18.0291 65.1096 18.5487C64.9107 19.0682 64.6531 19.546 64.3367 19.982C64.0203 20.418 63.6361 20.7798 63.1841 21.0674C62.7412 21.355 62.2214 21.4988 61.6248 21.4988C61.1367 21.4988 60.7118 21.3921 60.3502 21.1787C59.9886 20.9654 59.7039 20.6824 59.496 20.3299C59.2158 20.6546 58.8768 20.9283 58.479 21.1509C58.0903 21.3828 57.6338 21.4988 57.1095 21.4988C56.5671 21.4988 56.088 21.3875 55.6722 21.1648C55.2654 20.9422 54.9219 20.6407 54.6417 20.2603C54.3615 19.8707 54.1491 19.4161 54.0044 18.8966C53.8688 18.3678 53.801 17.8018 53.801 17.1988C53.801 16.0114 53.9863 14.9445 54.357 13.9982C54.7276 13.0519 55.2202 12.2495 55.8349 11.5908C56.4496 10.9228 57.1502 10.4126 57.9366 10.06C58.7321 9.70752 59.5547 9.53125 60.4045 9.53125C60.7841 9.53125 61.0915 9.63794 61.3265 9.85131C61.5615 10.0647 61.679 10.3569 61.679 10.728C61.679 10.9692 61.6519 11.1408 61.5977 11.2429C61.5525 11.3357 61.4621 11.382 61.3265 11.382C61.1999 11.382 61.0689 11.3728 60.9333 11.3542C60.7977 11.3357 60.6576 11.3264 60.5129 11.3264C59.9886 11.3264 59.4553 11.447 58.9129 11.6882C58.3705 11.9201 57.8779 12.2819 57.4349 12.7736C57.001 13.256 56.644 13.873 56.3638 14.6244C56.0835 15.3666 55.9434 16.2526 55.9434 17.2823C55.9434 18.0338 56.0835 18.6136 56.3638 19.0218C56.644 19.4207 57.0282 19.6202 57.5163 19.6202C57.896 19.6202 58.2124 19.4764 58.4655 19.1888C58.7186 18.8919 58.922 18.544 59.0756 18.1451V13.7477C59.0756 13.6086 59.0666 13.4926 59.0485 13.3998C59.0395 13.3071 59.0259 13.2282 59.0078 13.1633C58.9988 13.0983 58.9898 13.0427 58.9807 12.9963C58.9717 12.9406 58.9672 12.8896 58.9672 12.8432C58.9672 12.6948 59.035 12.5788 59.1706 12.4953C59.3152 12.4025 59.4869 12.3561 59.6858 12.3561C60.1468 12.3561 60.5129 12.4814 60.7841 12.7319C61.0553 12.9731 61.1909 13.2653 61.1909 13.6086V18.3121C61.1909 18.4698 61.209 18.6275 61.2451 18.7852C61.2813 18.9337 61.3355 19.0728 61.4079 19.2027C61.4802 19.3233 61.5751 19.4254 61.6926 19.5088C61.8192 19.5831 61.9638 19.6202 62.1265 19.6202Z" fill="#FC8EAC"/>
<path id="Vector_14" d="M51.7903 21.4988C51.474 21.4988 51.1847 21.4478 50.9225 21.3457C50.6694 21.2437 50.4434 21.0999 50.2446 20.9143C50.0547 20.7381 49.8965 20.5293 49.77 20.2881C49.6434 20.0377 49.5576 19.7686 49.5124 19.481C49.1779 20.084 48.7847 20.5757 48.3327 20.9561C47.8807 21.3365 47.3474 21.5266 46.7327 21.5266C46.2717 21.5266 45.8558 21.4292 45.4852 21.2344C45.1236 21.0396 44.8163 20.7659 44.5632 20.4134C44.3101 20.0516 44.1157 19.6202 43.9801 19.1192C43.8536 18.609 43.7903 18.0431 43.7903 17.4215C43.7903 16.67 43.84 15.9139 43.9394 15.1532C44.0479 14.3925 44.1654 13.706 44.292 13.0937C44.4366 12.3793 44.6038 11.6882 44.7937 11.0202C44.8389 10.8996 44.8705 10.779 44.8886 10.6584C44.9157 10.5286 44.97 10.4126 45.0513 10.3105C45.1327 10.2085 45.2592 10.125 45.431 10.0601C45.6118 9.99511 45.8875 9.96264 46.2581 9.96264C46.6016 9.96264 46.8231 10.0276 46.9225 10.1575C47.0219 10.2781 47.0581 10.4219 47.031 10.5889C47.0129 10.7558 46.9587 10.9275 46.8683 11.1037C46.7869 11.28 46.7327 11.4238 46.7056 11.5351C46.579 12.0639 46.466 12.5463 46.3666 12.9824C46.2671 13.4184 46.1813 13.8591 46.1089 14.3044C46.0457 14.7404 45.9959 15.1996 45.9598 15.682C45.9236 16.1552 45.9056 16.6886 45.9056 17.2823C45.9056 18.0616 46.014 18.6507 46.231 19.0496C46.457 19.4486 46.7734 19.648 47.1801 19.648C47.4604 19.648 47.718 19.5413 47.953 19.3279C48.1971 19.1146 48.414 18.8316 48.6039 18.4791C48.8027 18.1173 48.9745 17.7091 49.1191 17.2545C49.2638 16.7906 49.3768 16.3082 49.4581 15.8073V11.2151C49.4581 11.011 49.44 10.8486 49.4039 10.728C49.3768 10.6074 49.3451 10.5146 49.309 10.4497C49.2818 10.3755 49.2502 10.3198 49.214 10.2827C49.1869 10.2363 49.1734 10.1853 49.1734 10.1296C49.1734 10.0832 49.2005 10.0415 49.2547 10.0044C49.309 9.96728 49.3813 9.93481 49.4717 9.90698C49.5621 9.87915 49.657 9.8606 49.7564 9.85132C49.8649 9.83276 49.9689 9.82349 50.0683 9.82349C50.5293 9.82349 50.8909 9.94873 51.153 10.1992C51.4242 10.4404 51.5598 10.7326 51.5598 11.0759V18.3121C51.5598 18.377 51.5643 18.4837 51.5734 18.6322C51.5824 18.7713 51.6095 18.9151 51.6547 19.0635C51.6999 19.212 51.7723 19.3419 51.8717 19.4532C51.9711 19.5645 52.1112 19.6202 52.292 19.6202C52.5723 19.6202 52.8118 19.5181 53.0107 19.314C53.2186 19.1099 53.3949 18.8548 53.5395 18.5487C53.6932 18.2425 53.8152 17.9132 53.9056 17.5606C54.005 17.1988 54.0864 16.8602 54.1497 16.5448C54.2039 16.2479 54.2943 16.0346 54.4209 15.9047C54.5474 15.7655 54.6785 15.6959 54.8141 15.6959C54.9226 15.6959 55.0356 15.733 55.1531 15.8073C55.2706 15.8722 55.3745 15.9603 55.4649 16.0717C55.5644 16.183 55.6412 16.3082 55.6955 16.4474C55.7587 16.5865 55.7904 16.7257 55.7904 16.8649C55.7904 16.8834 55.7904 16.9066 55.7904 16.9344C55.7904 16.9623 55.7813 17.004 55.7632 17.0597C55.6367 17.5328 55.4695 18.0291 55.2615 18.5487C55.0627 19.0682 54.805 19.546 54.4887 19.982C54.1723 20.418 53.7926 20.7798 53.3497 21.0674C52.9067 21.355 52.387 21.4988 51.7903 21.4988Z" fill="#FC8EAC"/>
<path id="Vector_15" d="M37.5665 21.7354C36.979 21.7354 36.4908 21.6659 36.1021 21.5267C35.7134 21.3968 35.4061 21.2484 35.1801 21.0814C34.9541 20.9144 34.7959 20.7567 34.7055 20.6083C34.6151 20.4506 34.5699 20.3485 34.5699 20.3021C34.5699 20.1351 34.6061 19.9589 34.6784 19.7733C34.7507 19.5785 34.8411 19.4022 34.9496 19.2445C35.058 19.0775 35.1756 18.9384 35.3021 18.827C35.4287 18.7157 35.5417 18.6601 35.6411 18.6601C35.7677 18.6601 35.8716 18.7436 35.953 18.9105C35.9711 18.9291 36.0162 18.9755 36.0886 19.0497C36.1609 19.1239 36.2603 19.2028 36.3869 19.2863C36.5225 19.3605 36.6852 19.4301 36.875 19.495C37.0739 19.5599 37.3044 19.5924 37.5665 19.5924C38.136 19.5924 38.6016 19.4161 38.9632 19.0636C39.3247 18.7018 39.5055 18.2148 39.5055 17.6025C39.5055 17.1757 39.4061 16.7953 39.2072 16.4614C39.0174 16.1274 38.7643 15.8166 38.4479 15.529C38.1315 15.2414 37.7699 14.9631 37.3632 14.6941C36.9564 14.4158 36.5405 14.1282 36.1157 13.8313C35.6908 13.5344 35.275 13.2144 34.8682 12.8711C34.4614 12.5279 34.0999 12.1336 33.7835 11.6883C33.4671 11.243 33.2094 10.742 33.0106 10.1854C32.8207 9.61946 32.7258 8.97469 32.7258 8.25107C32.7258 7.6295 32.8298 7.0033 33.0377 6.37245C33.2456 5.7416 33.5304 5.14322 33.8919 4.57732C34.2626 4.00213 34.6965 3.46869 35.1936 2.977C35.6908 2.47604 36.2287 2.04465 36.8072 1.68284C37.3857 1.31175 37.9869 1.02416 38.6106 0.820062C39.2434 0.606687 39.8762 0.5 40.5089 0.5C41.0513 0.5 41.5395 0.588133 41.9734 0.764399C42.4073 0.940666 42.7734 1.19115 43.0717 1.51585C43.37 1.83127 43.6005 2.21628 43.7632 2.67086C43.9259 3.11616 44.0073 3.61713 44.0073 4.17376C44.0073 4.70256 43.9169 5.22208 43.7361 5.73232C43.5553 6.24257 43.3157 6.72498 43.0174 7.17956C42.7191 7.63414 42.3801 8.05625 42.0005 8.4459C41.6298 8.82626 41.2457 9.16024 40.8479 9.44783C40.4592 9.72614 40.0796 9.94416 39.7089 10.1019C39.3383 10.2596 39.0129 10.3384 38.7327 10.3384C38.4886 10.3384 38.2671 10.2828 38.0682 10.1714C37.8784 10.0508 37.7157 9.90705 37.5801 9.74006C37.4535 9.56379 37.3541 9.38289 37.2818 9.19735C37.2095 9.00253 37.1733 8.8309 37.1733 8.68246C37.1733 8.56186 37.1869 8.483 37.214 8.4459C37.2502 8.40879 37.2954 8.39487 37.3496 8.40415C37.4129 8.40415 37.4897 8.41806 37.5801 8.4459C37.6705 8.46445 37.7745 8.47373 37.892 8.47373C38.2716 8.47373 38.692 8.33921 39.153 8.07017C39.614 7.80113 40.0479 7.45788 40.4547 7.0404C40.8615 6.62293 41.2005 6.16371 41.4717 5.66274C41.7519 5.16178 41.892 4.67473 41.892 4.20159C41.892 3.71918 41.7745 3.33881 41.5395 3.0605C41.3135 2.78218 40.9248 2.64303 40.3733 2.64303C40.0298 2.64303 39.6547 2.7126 39.2479 2.85176C38.8502 2.98164 38.4479 3.16719 38.0411 3.40839C37.6343 3.6496 37.2411 3.94183 36.8615 4.28509C36.4818 4.62834 36.1473 5.0087 35.8581 5.42618C35.5688 5.83437 35.3338 6.27968 35.153 6.76209C34.9812 7.23522 34.8953 7.73155 34.8953 8.25107C34.8953 8.79843 34.9903 9.29012 35.1801 9.72614C35.379 10.1529 35.6366 10.5425 35.953 10.8951C36.2784 11.2476 36.6445 11.5723 37.0513 11.8692C37.4581 12.166 37.8739 12.4629 38.2988 12.7598C38.7236 13.0474 39.1394 13.3489 39.5462 13.6643C39.953 13.9704 40.3146 14.3137 40.631 14.6941C40.9564 15.0652 41.214 15.4826 41.4039 15.9465C41.6027 16.4011 41.7022 16.9252 41.7022 17.519C41.7022 18.0942 41.5937 18.6415 41.3767 19.161C41.1688 19.6713 40.8796 20.1166 40.5089 20.4969C40.1383 20.8773 39.6999 21.1788 39.1937 21.4015C38.6875 21.6241 38.1451 21.7354 37.5665 21.7354Z" fill="#FC8EAC"/>
</g>
</g>
</svg>
